:SAMPLES-PER-SECOND 30
:FULLY-SPECIFIED
:DEGREES
78
root  -3.99229 40.9081 -0.368934 1.16571 -68.4926 3.34229
RightUpLeg  2.2925 -2.2406 -0.391568
RightLeg  -5.94324 -39.1657 5.0487
RightFoot  -1.16679 -0.202167 2.19296
RightToes  -3.13588e-008 1.75238e-005 3.56266e-009
Spine  1.17798 4.6388 1.82664
Spine1  -7.44738 4.968 -3.19983
HEad  -6.37247 -3.20274 0.624253
LeftShoulder1  1.94802 -2.88428 -24.2661
LeftArm  -28.1847 7.0715 -43.444
LeftForeArm  41.9565 -72.8972 -33.9196
LeftHand  -0.37235 -1.29626 6.64478
RightShoulder  2.6228 5.25894 23.7974
RightArm  -18.9808 15.7464 49.1097
RightForeArm  69.7109 79.1963 67.6302
RightHand  -0.298026 7.02369 -3.14714
LeftUpLeg  -3.8848 -0.201423 3.11854
LeftLeg  -3.24654 -4.37845 0.309399
LeftFoot  2.7935 0.557461 -4.63257
LeftToes  4.76812e-008 1.47286e-008 1.3089e-009
79
root  -4.0151 40.9226 -0.26679 1.29092 -70.2577 3.53558
RightUpLeg  2.02011 -2.0752 -0.540445
RightLeg  -6.21081 -37.5761 4.96746
RightFoot  -0.840375 -0.196239 2.06996
RightToes  -3.13588e-008 1.75238e-005 3.56266e-009
Spine  2.11072 4.78391 2.91996
Spine1  -8.9237 5.19392 -4.76164
HEad  -7.98811 -0.967762 1.08697
LeftShoulder1  1.74799 -2.33172 -23.7159
LeftArm  -30.8204 14.7466 -42.9706
LeftForeArm  42.2418 -73.061 -34.3475
LeftHand  -0.399459 -0.716292 7.70622
RightShoulder  2.60439 5.12198 24.0723
RightArm  -20.6341 18.2956 48.4594
RightForeArm  80.712 79.8015 78.5331
RightHand  -0.274754 7.91738 -2.75726
LeftUpLeg  -3.63634 -0.140733 3.09027
LeftLeg  -3.6661 -2.69688 0.146142
LeftFoot  2.78854 0.546342 -4.54427
LeftToes  4.76812e-008 1.47286e-008 1.3089e-009
80
root  -4.04039 40.9341 -0.175575 1.60004 -71.6662 3.41946
RightUpLeg  1.86716 -1.86557 -0.555148
RightLeg  -6.43152 -36.3772 4.87801
RightFoot  -0.569428 -0.195097 2.02417
RightToes  -3.13588e-008 1.75238e-005 3.56266e-009
Spine  2.18537 5.13672 3.35418
Spine1  -8.98924 5.57533 -5.22676
HEad  -9.71912 -0.70983 1.85653
LeftShoulder1  1.66738 -2.00226 -24.042
LeftArm  -33.0688 20.688 -42.4687
LeftForeArm  42.4219 -73.2027 -34.7345
LeftHand  -0.417781 -0.826359 7.91822
RightShoulder  2.46381 4.81471 23.466
RightArm  -23.1126 19.9006 47.731
RightForeArm  87.7981 79.9179 87.1972
RightHand  -0.378859 8.07534 -3.63497
LeftUpLeg  -3.48237 -0.0975378 3.10901
LeftLeg  -3.79655 -1.33979 0.0763724
LeftFoot  2.66104 0.533939 -4.47874
LeftToes  4.76812e-008 1.47286e-008 1.3089e-009
81
root  -4.06045 40.9435 -0.0838147 1.55331 -72.7734 3.54025
RightUpLeg  1.81382 -1.8674 -0.727638
RightLeg  -6.50992 -35.277 4.80949
RightFoot  -0.411996 -0.200937 2.08803
RightToes  -3.13588e-008 1.75238e-005 3.56266e-009
Spine  2.09351 5.86924 4.37985
Spine1  -8.58066 6.45308 -6.70275
HEad  -11.0596 -1.28718 3.54089
LeftShoulder1  1.55953 -1.70064 -23.7141
LeftArm  -33.2606 24.0979 -43.0983
LeftForeArm  42.97 -73.4224 -35.3072
LeftHand  -0.421584 -1.10767 7.70777
RightShoulder  2.26782 4.26872 23.0055
RightArm  -26.1332 20.1216 46.3441
RightForeArm  92.8506 79.9492 91.7868
RightHand  -0.385914 8.16426 -3.67496
LeftUpLeg  -3.2017 -0.169621 2.98683
LeftLeg  -4.01287 -0.159907 0.051166
LeftFoot  2.60212 0.505133 -4.2597
LeftToes  4.76812e-008 1.47286e-008 1.3089e-009
82
root  -4.08583 40.9461 -0.037401 1.75677 -72.825 3.35733
RightUpLeg  1.94628 -1.8417 -0.719404
RightLeg  -6.7956 -35.2583 4.95609
RightFoot  -0.309694 -0.201965 2.07689
RightToes  -3.13588e-008 1.75238e-005 3.56266e-009
Spine  2.18524 6.21903 4.59263
Spine1  -8.77357 6.82758 -7.13014
HEad  -11.7333 -1.34213 4.2677
LeftShoulder1  1.58157 -1.75261 -23.8427
LeftArm  -32.1627 26.5958 -43.9017
LeftForeArm  46.1234 -74.5783 -38.6365
LeftHand  -0.305715 -1.81689 5.09572
RightShoulder  2.19492 4.03804 22.9262
RightArm  -28.523 19.5182 44.8468
RightForeArm  90.6586 79.9771 88.8978
RightHand  -0.384418 7.55333 -3.80475
LeftUpLeg  -3.1886 -0.0822234 3.01674
LeftLeg  -3.96858 -0.208345 -0.0295692
LeftFoot  2.57875 0.480748 -4.06515
LeftToes  4.76812e-008 1.47286e-008 1.3089e-009
83
root  -4.12024 40.9464 -0.00806869 1.73138 -72.3537 3.25647
RightUpLeg  2.24784 -1.90236 -0.729327
RightLeg  -6.96338 -35.6667 5.1009
RightFoot  -0.309525 -0.21278 2.21731
RightToes  -3.13588e-008 1.75238e-005 3.56266e-009
Spine  1.51754 6.0668 4.54944
Spine1  -7.94997 6.7208 -7.15617
HEad  -11.8774 -0.877 4.39658
LeftShoulder1  1.57549 -1.7343 -23.8225
LeftArm  -30.7822 27.7701 -45.2481
LeftForeArm  49.7719 -75.8282 -43.1724
LeftHand  -0.432378 -1.24523 7.71178
RightShoulder  2.31239 4.2524 23.6806
RightArm  -29.6351 19.5828 44.6033
RightForeArm  80.7815 79.7804 79.9795
RightHand  -0.38455 7.44084 -3.83257
LeftUpLeg  -3.10409 0.0330372 3.04411
LeftLeg  -3.87827 -0.803737 -0.105124
LeftFoot  2.50366 0.480698 -4.0932
LeftToes  4.76812e-008 1.47286e-008 1.3089e-009
84
root  -4.153 40.9425 0.0125226 1.6051 -71.2572 3.233
RightUpLeg  2.65659 -2.04474 -0.755459
RightLeg  -7.21026 -36.5754 5.37503
RightFoot  -0.371763 -0.211688 2.1802
RightToes  -3.13588e-008 1.75238e-005 3.56266e-009
Spine  0.965931 5.67165 3.89572
Spine1  -7.4397 6.272 -6.29715
HEad  -11.0849 -1.66333 4.40025
LeftShoulder1  1.71598 -2.09416 -24.4436
LeftArm  -29.9982 27.8061 -46.2024
LeftForeArm  52.2486 -76.2639 -44.7263
LeftHand  -0.407762 -1.3626 7.19034
RightShoulder  2.38886 4.39596 24.1268
RightArm  -29.8029 19.2651 44.8057
RightForeArm  73.696 79.473 72.1224
RightHand  -0.333693 7.42116 -3.37935
LeftUpLeg  -3.11691 -0.0833365 2.93119
LeftLeg  -3.7359 -1.75492 0.0336606
LeftFoot  2.45274 0.486827 -4.19111
LeftToes  4.76812e-008 1.47286e-008 1.3089e-009
85
root  -4.17169 40.9393 0.0207997 1.58716 -70.393 3.11795
RightUpLeg  2.86736 -2.03852 -0.678443
RightLeg  -7.18984 -37.4832 5.38507
RightFoot  -0.463036 -0.220241 2.29457
RightToes  -3.13588e-008 1.75238e-005 3.56266e-009
Spine  0.998485 5.26106 3.75704
Spine1  -7.55506 5.85856 -6.27435
HEad  -10.5428 -1.93753 4.58538
LeftShoulder1  1.76415 -2.25068 -24.4404
LeftArm  -29.3624 27.1625 -46.8176
LeftForeArm  52.8642 -76.0835 -43.4715
LeftHand  -0.342672 -2.04212 5.53136
RightShoulder  2.50449 4.62376 24.7332
RightArm  -29.5867 18.4552 44.6889
RightForeArm  70.9777 79.2754 68.3041
RightHand  -0.364522 7.43567 -3.65182
LeftUpLeg  -3.10536 -0.126355 2.89279
LeftLeg  -3.67542 -2.55324 0.12868
LeftFoot  2.46064 0.487136 -4.18526
LeftToes  4.76812e-008 1.47286e-008 1.3089e-009
86
root  -4.22254 40.9358 0.0273058 1.23911 -69.7359 3.23044
RightUpLeg  3.2389 -2.14937 -0.709422
RightLeg  -7.12381 -38.0083 5.39253
RightFoot  -0.59745 -0.224013 2.33645
RightToes  -3.13588e-008 1.75238e-005 3.56266e-009
Spine  0.847172 5.02484 2.87243
Spine1  -7.30502 5.55895 -5.31747
HEad  -10.3796 -1.78956 4.14904
LeftShoulder1  1.84501 -2.44922 -24.7982
LeftArm  -29.2224 26.3795 -46.7074
LeftForeArm  51.9705 -75.8738 -42.6593
LeftHand  -0.344881 -1.70708 5.83458
RightShoulder  2.55366 4.7768 24.7552
RightArm  -29.738 17.9295 44.0255
RightForeArm  68.1732 79.0728 66.1415
RightHand  -0.324917 7.1395 -3.3575
LeftUpLeg  -2.83714 -0.141229 2.81948
LeftLeg  -3.71447 -3.20134 0.1761
LeftFoot  2.45299 0.492947 -4.26168
LeftToes  4.76812e-008 1.47286e-008 1.3089e-009
87
root  -4.24907 40.9352 0.0339326 0.944885 -69.4908 3.48111
RightUpLeg  3.32923 -2.27721 -0.822759
RightLeg  -7.01264 -38.1335 5.36797
RightFoot  -0.70696 -0.23225 2.4491
RightToes  -3.13588e-008 1.75238e-005 3.56266e-009
Spine  0.950182 4.90293 2.25276
Spine1  -7.5117 5.39075 -4.79395
HEad  -10.5944 -0.983225 3.90785
LeftShoulder1  1.81494 -2.37708 -24.66
LeftArm  -29.6078 26.0408 -46.5099
LeftForeArm  51.4874 -75.8361 -42.6338
LeftHand  -0.415263 -1.3239 7.3466
RightShoulder  2.46349 4.5922 24.327
RightArm  -29.9912 17.599 43.3853
RightForeArm  65.1876 78.7946 62.9142
RightHand  -0.391241 7.31214 -3.92412
LeftUpLeg  -2.74058 -0.203522 2.71514
LeftLeg  -3.76148 -3.38117 0.182636
LeftFoot  2.43785 0.494294 -4.27472
LeftToes  4.76812e-008 1.47286e-008 1.3089e-009
